{
    "asset" : {
        "generator" : "Khronos glTF Blender I/O v0.9.36",
        "version" : "2.0"
    },
    "scene" : 0,
    "scenes" : [
        {
            "name" : "Scene",
            "nodes" : [
                0,
                1,
                2,
                3,
                4,
                5,
                6,
                7,
                8,
                9
            ]
        }
    ],
    "nodes" : [
        {
            "name" : "Light",
            "rotation" : [
                0.16907575726509094,
                0.7558803558349609,
                -0.27217137813568115,
                0.570947527885437
            ],
            "translation" : [
                4.076245307922363,
                5.903861999511719,
                -1.0054539442062378
            ]
        },
        {
            "name" : "Camera",
            "rotation" : [
                0.483536034822464,
                0.33687159419059753,
                -0.20870360732078552,
                0.7804827094078064
            ],
            "translation" : [
                7.358891487121582,
                4.958309173583984,
                6.925790786743164
            ]
        },
        {
            "name" : "Lamp",
            "rotation" : [
                0.5232754349708557,
                0.3420339822769165,
                -0.7269423604011536,
                0.2841661274433136
            ],
            "translation" : [
                4.076245307922363,
                5.903862476348877,
                -1.0054532289505005
            ]
        },
        {
            "name" : "Camera.001",
            "rotation" : [
                0.8937963247299194,
                0.09062855690717697,
                -0.3857799172401428,
                0.20997287333011627
            ],
            "translation" : [
                7.481131553649902,
                5.343664646148682,
                6.507641792297363
            ]
        },
        {
            "mesh" : 0,
            "name" : "Suzanne"
        },
        {
            "mesh" : 1,
            "name" : "Plane",
            "rotation" : [
                0,
                0,
                -0.7071067690849304,
                0.7071067690849304
            ],
            "scale" : [
                5.448909759521484,
                5.448909759521484,
                5.448909759521484
            ],
            "translation" : [
                4.956965923309326,
                0,
                0
            ]
        },
        {
            "mesh" : 2,
            "name" : "Plane.001",
            "scale" : [
                5.448909759521484,
                5.448909759521484,
                5.448909759521484
            ],
            "translation" : [
                0,
                4.090118408203125,
                0
            ]
        },
        {
            "mesh" : 3,
            "name" : "Plane.002",
            "rotation" : [
                0,
                0,
                -0.7071067690849304,
                0.7071067690849304
            ],
            "scale" : [
                5.448909759521484,
                5.448909759521484,
                5.448909759521484
            ],
            "translation" : [
                -4.817255973815918,
                0,
                0
            ]
        },
        {
            "mesh" : 4,
            "name" : "Plane.003",
            "rotation" : [
                0.7071067690849304,
                0,
                0,
                0.7071067690849304
            ],
            "scale" : [
                5.448909759521484,
                5.448909759521484,
                5.448909759521484
            ],
            "translation" : [
                0,
                0,
                -4.454687118530273
            ]
        },
        {
            "mesh" : 5,
            "name" : "Plane.004",
            "scale" : [
                5.448909759521484,
                5.448909759521484,
                5.448909759521484
            ],
            "translation" : [
                0,
                -2.196430206298828,
                0
            ]
        }
    ],
    "meshes" : [
        {
            "name" : "Suzanne.002",
            "primitives" : [
                {
                    "attributes" : {
                        "POSITION" : 0,
                        "NORMAL" : 1,
                        "TANGENT" : 2,
                        "TEXCOORD_0" : 3
                    },
                    "indices" : 4
                }
            ]
        },
        {
            "name" : "Plane.006",
            "primitives" : [
                {
                    "attributes" : {
                        "POSITION" : 5,
                        "NORMAL" : 6,
                        "TANGENT" : 7,
                        "TEXCOORD_0" : 8
                    },
                    "indices" : 9
                }
            ]
        },
        {
            "name" : "Plane.007",
            "primitives" : [
                {
                    "attributes" : {
                        "POSITION" : 10,
                        "NORMAL" : 11,
                        "TANGENT" : 12,
                        "TEXCOORD_0" : 13
                    },
                    "indices" : 9
                }
            ]
        },
        {
            "name" : "Plane.008",
            "primitives" : [
                {
                    "attributes" : {
                        "POSITION" : 14,
                        "NORMAL" : 15,
                        "TANGENT" : 16,
                        "TEXCOORD_0" : 17
                    },
                    "indices" : 9
                }
            ]
        },
        {
            "name" : "Plane.009",
            "primitives" : [
                {
                    "attributes" : {
                        "POSITION" : 18,
                        "NORMAL" : 19,
                        "TANGENT" : 20,
                        "TEXCOORD_0" : 21
                    },
                    "indices" : 9
                }
            ]
        },
        {
            "name" : "Plane.010",
            "primitives" : [
                {
                    "attributes" : {
                        "POSITION" : 22,
                        "NORMAL" : 23,
                        "TANGENT" : 24,
                        "TEXCOORD_0" : 25
                    },
                    "indices" : 9
                }
            ]
        }
    ],
    "accessors" : [
        {
            "bufferView" : 0,
            "componentType" : 5126,
            "count" : 1968,
            "max" : [
                1.3671875,
                0.984375,
                0.8515625
            ],
            "min" : [
                -1.3671875,
                -0.984375,
                -0.8515625
            ],
            "type" : "VEC3"
        },
        {
            "bufferView" : 1,
            "componentType" : 5126,
            "count" : 1968,
            "type" : "VEC3"
        },
        {
            "bufferView" : 2,
            "componentType" : 5126,
            "count" : 1968,
            "type" : "VEC4"
        },
        {
            "bufferView" : 3,
            "componentType" : 5126,
            "count" : 1968,
            "type" : "VEC2"
        },
        {
            "bufferView" : 4,
            "componentType" : 5123,
            "count" : 2904,
            "type" : "SCALAR"
        },
        {
            "bufferView" : 5,
            "componentType" : 5126,
            "count" : 4,
            "max" : [
                1,
                0,
                1
            ],
            "min" : [
                -1,
                0,
                -1
            ],
            "type" : "VEC3"
        },
        {
            "bufferView" : 6,
            "componentType" : 5126,
            "count" : 4,
            "type" : "VEC3"
        },
        {
            "bufferView" : 7,
            "componentType" : 5126,
            "count" : 4,
            "type" : "VEC4"
        },
        {
            "bufferView" : 8,
            "componentType" : 5126,
            "count" : 4,
            "type" : "VEC2"
        },
        {
            "bufferView" : 9,
            "componentType" : 5123,
            "count" : 6,
            "type" : "SCALAR"
        },
        {
            "bufferView" : 10,
            "componentType" : 5126,
            "count" : 4,
            "max" : [
                1,
                0,
                1
            ],
            "min" : [
                -1,
                0,
                -1
            ],
            "type" : "VEC3"
        },
        {
            "bufferView" : 11,
            "componentType" : 5126,
            "count" : 4,
            "type" : "VEC3"
        },
        {
            "bufferView" : 12,
            "componentType" : 5126,
            "count" : 4,
            "type" : "VEC4"
        },
        {
            "bufferView" : 13,
            "componentType" : 5126,
            "count" : 4,
            "type" : "VEC2"
        },
        {
            "bufferView" : 14,
            "componentType" : 5126,
            "count" : 4,
            "max" : [
                1,
                0,
                1
            ],
            "min" : [
                -1,
                0,
                -1
            ],
            "type" : "VEC3"
        },
        {
            "bufferView" : 15,
            "componentType" : 5126,
            "count" : 4,
            "type" : "VEC3"
        },
        {
            "bufferView" : 16,
            "componentType" : 5126,
            "count" : 4,
            "type" : "VEC4"
        },
        {
            "bufferView" : 17,
            "componentType" : 5126,
            "count" : 4,
            "type" : "VEC2"
        },
        {
            "bufferView" : 18,
            "componentType" : 5126,
            "count" : 4,
            "max" : [
                1,
                0,
                1
            ],
            "min" : [
                -1,
                0,
                -1
            ],
            "type" : "VEC3"
        },
        {
            "bufferView" : 19,
            "componentType" : 5126,
            "count" : 4,
            "type" : "VEC3"
        },
        {
            "bufferView" : 20,
            "componentType" : 5126,
            "count" : 4,
            "type" : "VEC4"
        },
        {
            "bufferView" : 21,
            "componentType" : 5126,
            "count" : 4,
            "type" : "VEC2"
        },
        {
            "bufferView" : 22,
            "componentType" : 5126,
            "count" : 4,
            "max" : [
                1,
                0,
                1
            ],
            "min" : [
                -1,
                0,
                -1
            ],
            "type" : "VEC3"
        },
        {
            "bufferView" : 23,
            "componentType" : 5126,
            "count" : 4,
            "type" : "VEC3"
        },
        {
            "bufferView" : 24,
            "componentType" : 5126,
            "count" : 4,
            "type" : "VEC4"
        },
        {
            "bufferView" : 25,
            "componentType" : 5126,
            "count" : 4,
            "type" : "VEC2"
        }
    ],
    "bufferViews" : [
        {
            "buffer" : 0,
            "byteLength" : 23616,
            "byteOffset" : 0
        },
        {
            "buffer" : 0,
            "byteLength" : 23616,
            "byteOffset" : 23616
        },
        {
            "buffer" : 0,
            "byteLength" : 31488,
            "byteOffset" : 47232
        },
        {
            "buffer" : 0,
            "byteLength" : 15744,
            "byteOffset" : 78720
        },
        {
            "buffer" : 0,
            "byteLength" : 5808,
            "byteOffset" : 94464
        },
        {
            "buffer" : 0,
            "byteLength" : 48,
            "byteOffset" : 100272
        },
        {
            "buffer" : 0,
            "byteLength" : 48,
            "byteOffset" : 100320
        },
        {
            "buffer" : 0,
            "byteLength" : 64,
            "byteOffset" : 100368
        },
        {
            "buffer" : 0,
            "byteLength" : 32,
            "byteOffset" : 100432
        },
        {
            "buffer" : 0,
            "byteLength" : 12,
            "byteOffset" : 100464
        },
        {
            "buffer" : 0,
            "byteLength" : 48,
            "byteOffset" : 100476
        },
        {
            "buffer" : 0,
            "byteLength" : 48,
            "byteOffset" : 100524
        },
        {
            "buffer" : 0,
            "byteLength" : 64,
            "byteOffset" : 100572
        },
        {
            "buffer" : 0,
            "byteLength" : 32,
            "byteOffset" : 100636
        },
        {
            "buffer" : 0,
            "byteLength" : 48,
            "byteOffset" : 100668
        },
        {
            "buffer" : 0,
            "byteLength" : 48,
            "byteOffset" : 100716
        },
        {
            "buffer" : 0,
            "byteLength" : 64,
            "byteOffset" : 100764
        },
        {
            "buffer" : 0,
            "byteLength" : 32,
            "byteOffset" : 100828
        },
        {
            "buffer" : 0,
            "byteLength" : 48,
            "byteOffset" : 100860
        },
        {
            "buffer" : 0,
            "byteLength" : 48,
            "byteOffset" : 100908
        },
        {
            "buffer" : 0,
            "byteLength" : 64,
            "byteOffset" : 100956
        },
        {
            "buffer" : 0,
            "byteLength" : 32,
            "byteOffset" : 101020
        },
        {
            "buffer" : 0,
            "byteLength" : 48,
            "byteOffset" : 101052
        },
        {
            "buffer" : 0,
            "byteLength" : 48,
            "byteOffset" : 101100
        },
        {
            "buffer" : 0,
            "byteLength" : 64,
            "byteOffset" : 101148
        },
        {
            "buffer" : 0,
            "byteLength" : 32,
            "byteOffset" : 101212
        }
    ],
    "buffers" : [
        {
            "byteLength" : 101244,
            "uri" : "monkey.bin"
        }
    ]
}
